<?xml version="1.0" encoding="UTF-8" standalone="no"?>
<!-- Created with Inkscape (http://www.inkscape.org/) -->

<svg
   xmlns:dc="http://purl.org/dc/elements/1.1/"
   xmlns:cc="http://creativecommons.org/ns#"
   xmlns:rdf="http://www.w3.org/1999/02/22-rdf-syntax-ns#"
   xmlns:svg="http://www.w3.org/2000/svg"
   xmlns="http://www.w3.org/2000/svg"
   xmlns:sodipodi="http://sodipodi.sourceforge.net/DTD/sodipodi-0.dtd"
   xmlns:inkscape="http://www.inkscape.org/namespaces/inkscape"
   width="360.45352"
   height="91.854408"
   id="svg2"
   version="1.1"
   inkscape:version="0.48.3.1 r9886"
   sodipodi:docname="wyzziFull.svg">
  <defs
     id="defs4" />
  <sodipodi:namedview
     id="base"
     pagecolor="#ffffff"
     bordercolor="#666666"
     borderopacity="1.0"
     inkscape:pageopacity="0.0"
     inkscape:pageshadow="2"
     inkscape:zoom="1.3906123"
     inkscape:cx="85.847437"
     inkscape:cy="-16.593353"
     inkscape:document-units="px"
     inkscape:current-layer="g3065"
     showgrid="false"
     fit-margin-top="0"
     fit-margin-left="0"
     fit-margin-right="0"
     fit-margin-bottom="0"
     inkscape:window-width="1366"
     inkscape:window-height="681"
     inkscape:window-x="0"
     inkscape:window-y="27"
     inkscape:window-maximized="1" />
  <metadata
     id="metadata7">
    <rdf:RDF>
      <cc:Work
         rdf:about="">
        <dc:format>image/svg+xml</dc:format>
        <dc:type
           rdf:resource="http://purl.org/dc/dcmitype/StillImage" />
        <dc:title />
      </cc:Work>
    </rdf:RDF>
  </metadata>
  <g
     inkscape:label="Layer 1"
     inkscape:groupmode="layer"
     id="layer1"
     transform="translate(-266.29248,-249.46178)">
    <g
       id="g3010">
      <g
         id="g3065">
        <g
           transform="scale(0.87126995,1.1477499)"
           style="font-size:42.01281738000000132px;font-style:normal;font-weight:normal;line-height:125%;letter-spacing:0px;word-spacing:0px;fill:#4d4d4d;fill-opacity:1;stroke:none;font-family:Sans"
           id="text2985">
          <path
             d="m 383.96113,238.56143 c 0,-1.656 -1.512,-1.656 -2.376,-1.656 l -10.008,0 c -0.936,0 -2.376,0 -2.376,1.656 0,1.512 1.584,1.512 2.376,1.512 l 4.032,0 -11.52,38.232 -1.44,0 -11.736,-39.384 c -0.648,-2.016 -2.01601,-2.016 -3.384,-2.016 -1.656,0 -2.736,0 -3.384,2.016 l -11.88,39.384 -1.44,0 -11.448,-38.232 4.032,0 c 0.864,0 2.376,0 2.376,-1.512 0,-1.656 -1.512,-1.656 -2.376,-1.656 l -10.008,0 c -0.864,0 -2.376,0 -2.376,1.584 0,1.584 1.512,1.584 2.376,1.584 l 3.024,0 12.096,40.176 c 0.648,1.224 2.016,1.224 3.024,1.224 1.79999,0 2.736,0 3.384,-2.232 l 11.808,-39.168 1.44,0 11.88,39.096 c 0.648,1.872 1.08,2.304 3.312,2.304 1.36799,0 2.808,0 3.384,-2.016 l 11.808,-39.384 3.024,0 c 0.864,0 2.376,0 2.376,-1.512"
             style="font-size:72px;font-variant:normal;font-weight:300;font-stretch:normal;letter-spacing:5.25160216999999996px;font-family:LMMonoPropLt10;-inkscape-font-specification:LMMonoPropLt10 Light;fill:#4d4d4d"
             id="path3049" />
          <path
             d="m 443.05298,238.56143 c 0,-1.656 -1.512,-1.656 -2.376,-1.656 l -11.52,0 c -0.864,0 -2.376,0 -2.376,1.584 0,1.584 1.512,1.584 2.376,1.584 l 3.024,0 -14.328,19.296 -14.256,-19.296 3.024,0 c 0.864,0 2.376,0 2.376,-1.512 0,-1.656 -1.512,-1.656 -2.376,-1.656 l -11.52,0 c -0.864,0 -2.376,0 -2.376,1.584 0,1.584 1.512,1.584 2.376,1.584 l 3.888,0 16.992,23.184 0,14.472 -4.68,0 c -0.864,0 -2.304,0 -2.304,1.584 0,1.584 1.512,1.584 2.304,1.584 l 13.176,0 c 0.792,0 2.304,0 2.304,-1.584 0,-1.584 -1.44,-1.584 -2.304,-1.584 l -4.68,0 0,-14.472 16.992,-23.184 3.888,0 c 0.864,0 2.376,0 2.376,-1.512"
             style="font-size:72px;font-variant:normal;font-weight:300;font-stretch:normal;letter-spacing:5.25160216999999996px;font-family:LMMonoPropLt10;-inkscape-font-specification:LMMonoPropLt10 Light;fill:#4d4d4d"
             id="path3051" />
          <path
             d="m 492.78708,278.52143 0,-6.84 c 0,-1.08 0,-2.376 -1.872,-2.376 -1.944,0 -1.944,1.224 -1.944,2.376 l 0,6.048 -29.16,0 32.184,-37.584 c 0.288,-0.36 0.36,-0.648 0.36,-1.368 0,-1.872 -1.296,-1.872 -2.376,-1.872 l -31.752,0 c -1.944,0 -2.376,0.432 -2.376,2.376 l 0,5.4 c 0,1.08 0,2.376 1.872,2.376 1.872,0 1.872,-1.224 1.872,-2.376 l 0,-4.608 27.648,0 -32.184,37.584 c -0.288,0.36 -0.36,0.648 -0.36,1.368 0,1.872 1.296,1.872 2.376,1.872 l 33.408,0 c 1.872,0 2.304,-0.504 2.304,-2.376"
             style="font-size:72px;font-variant:normal;font-weight:300;font-stretch:normal;letter-spacing:5.25160216999999996px;font-family:LMMonoPropLt10;-inkscape-font-specification:LMMonoPropLt10 Light;fill:#4d4d4d"
             id="path3053" />
          <path
             d="m 544.30431,278.52143 0,-6.84 c 0,-1.08 0,-2.376 -1.872,-2.376 -1.944,0 -1.944,1.224 -1.944,2.376 l 0,6.048 -29.16,0 32.184,-37.584 c 0.288,-0.36 0.36,-0.648 0.36,-1.368 0,-1.872 -1.296,-1.872 -2.376,-1.872 l -31.752,0 c -1.944,0 -2.376,0.432 -2.376,2.376 l 0,5.4 c 0,1.08 0,2.376 1.872,2.376 1.872,0 1.872,-1.224 1.872,-2.376 l 0,-4.608 27.648,0 -32.184,37.584 c -0.288,0.36 -0.36,0.648 -0.36,1.368 0,1.872 1.296,1.872 2.376,1.872 l 33.408,0 c 1.872,0 2.304,-0.504 2.304,-2.376"
             style="font-size:72px;font-variant:normal;font-weight:300;font-stretch:normal;letter-spacing:5.25160216999999996px;font-family:LMMonoPropLt10;-inkscape-font-specification:LMMonoPropLt10 Light;fill:#4d4d4d"
             id="path3055" />
          <path
             d="m 575.30153,279.31343 c 0,-1.584 -1.44,-1.584 -2.304,-1.584 l -5.04,0 0,-37.656 5.04,0 c 0.792,0 2.304,0 2.304,-1.512 0,-1.656 -1.44,-1.656 -2.304,-1.656 l -13.896,0 c -0.86399,0 -2.304,0 -2.304,1.656 0,1.512 1.51201,1.512 2.304,1.512 l 5.04,0 0,37.656 -5.04,0 c -0.86399,0 -2.304,0 -2.304,1.584 0,1.584 1.51201,1.584 2.304,1.584 l 13.896,0 c 0.792,0 2.304,0 2.304,-1.584"
             style="font-size:72px;font-variant:normal;font-weight:300;font-stretch:normal;letter-spacing:5.25160216999999996px;font-family:LMMonoPropLt10;-inkscape-font-specification:LMMonoPropLt10 Light;fill:#4d4d4d"
             id="path3057" />
        </g>
        <text
           xml:space="preserve"
           style="font-size:57.94625854000000231px;font-style:normal;font-weight:normal;line-height:125%;letter-spacing:0px;word-spacing:0px;fill:#999999;fill-opacity:1;stroke:none;font-family:Sans"
           x="730.37122"
           y="219.67796"
           id="text2989"
           sodipodi:linespacing="125%"
           transform="scale(0.69029477,1.4486565)"><tspan
             sodipodi:role="line"
             id="tspan2991"
             x="730.37122"
             y="219.67796"
             style="fill:#999999">|</tspan></text>
        <g
           transform="scale(0.77209495,1.2951775)"
           style="font-size:78.84065246999998067px;font-style:normal;font-weight:normal;line-height:1000%;letter-spacing:0px;word-spacing:0px;fill:#666666;fill-opacity:1;stroke:none;font-family:Sans"
           id="text2993">
          <path
             d="m 679.48999,226.40514 5.6875,0 1.46875,28.15625 13.0625,-28.15625 6.65625,0 1.9375,28.15625 12.40625,-28.15625 5.75,0 -16,35 -6.71875,0 -1.71875,-29 -13.375,29 -6.78125,0 -2.375,-35"
             style="font-size:64px;font-style:italic;font-variant:normal;font-stretch:normal;line-height:1000%;font-family:KodchiangUPC;-inkscape-font-specification:KodchiangUPC Italic;fill:#666666"
             id="path3060" />
          <path
             d="m 757.20874,240.78014 c 0.0625,-0.33331 0.10414,-0.67706 0.125,-1.03125 0.0416,-0.35415 0.0625,-0.70831 0.0625,-1.0625 -3e-5,-2.54164 -0.75003,-4.55206 -2.25,-6.03125 -1.47919,-1.47914 -3.50002,-2.21872 -6.0625,-2.21875 -2.85419,3e-5 -5.37502,0.90628 -7.5625,2.71875 -2.18751,1.79169 -3.84376,4.34377 -4.96875,7.65625 l 20.65625,-0.0312 m 5,4.5 -26.75,0 c -0.12501,0.79168 -0.20834,1.41668 -0.25,1.875 -0.0417,0.45835 -0.0625,0.85418 -0.0625,1.1875 -1e-5,2.89584 0.88541,5.13542 2.65625,6.71875 1.79165,1.58334 4.31248,2.375 7.5625,2.375 2.49998,0 4.86456,-0.28125 7.09375,-0.84375 2.22914,-0.5625 4.30205,-1.38541 6.21875,-2.46875 l -1.09375,5.6875 c -2.06253,0.83333 -4.19794,1.45833 -6.40625,1.875 -2.18752,0.41666 -4.41669,0.625 -6.6875,0.625 -4.85418,0 -8.59376,-1.15625 -11.21875,-3.46875 -2.60417,-2.33333 -3.90625,-5.63541 -3.90625,-9.90625 0,-3.64582 0.64583,-7.03123 1.9375,-10.15625 1.31249,-3.14581 3.22916,-5.94789 5.75,-8.40625 1.62499,-1.54164 3.55207,-2.72913 5.78125,-3.5625 2.24998,-0.8333 4.6354,-1.24997 7.15625,-1.25 3.95831,3e-5 7.10414,1.18753 9.4375,3.5625 2.35413,2.37503 3.53121,5.56252 3.53125,9.5625 -4e-5,0.95835 -0.0625,1.9896 -0.1875,3.09375 -0.12504,1.08335 -0.31254,2.25002 -0.5625,3.5"
             style="font-size:64px;font-style:italic;font-variant:normal;font-stretch:normal;line-height:1000%;font-family:KodchiangUPC;-inkscape-font-specification:KodchiangUPC Italic;fill:#666666"
             id="path3062" />
          <path
             d="m 797.48999,240.03014 c -3e-5,-3.02081 -0.69795,-5.38539 -2.09375,-7.09375 -1.37503,-1.70831 -3.28128,-2.56247 -5.71875,-2.5625 -1.77086,3e-5 -3.43752,0.43753 -5,1.3125 -1.54168,0.85419 -2.88543,2.10419 -4.03125,3.75 -1.20835,1.72919 -2.16668,3.7396 -2.875,6.03125 -0.68751,2.27085 -1.03126,4.54168 -1.03125,6.8125 -1e-5,2.87501 0.67707,5.13542 2.03125,6.78125 1.37499,1.625 3.2604,2.4375 5.65625,2.4375 1.81248,0 3.48956,-0.41666 5.03125,-1.25 1.54164,-0.85416 2.89581,-2.10416 4.0625,-3.75 1.18747,-1.70832 2.1458,-3.69791 2.875,-5.96875 0.72914,-2.27082 1.09372,-4.43748 1.09375,-6.5 m -17.875,-8.3125 c 1.41665,-1.91664 3.18748,-3.41664 5.3125,-4.5 2.14581,-1.10413 4.38539,-1.65622 6.71875,-1.65625 3.5833,3e-5 6.42705,1.20837 8.53125,3.625 2.12496,2.41669 3.18746,5.68752 3.1875,9.8125 -4e-5,3.37502 -0.62504,6.64585 -1.875,9.8125 -1.2292,3.16667 -2.98962,5.97917 -5.28125,8.4375 -1.50003,1.625 -3.22919,2.875 -5.1875,3.75 -1.95836,0.875 -4.01044,1.3125 -6.15625,1.3125 -2.27085,0 -4.2396,-0.52084 -5.90625,-1.5625 -1.66668,-1.04167 -3.02084,-2.59375 -4.0625,-4.65625 l -1.03125,5.3125 -5.75,0 9.46875,-48.625 5.75,0 -3.71875,18.9375"
             style="font-size:64px;font-style:italic;font-variant:normal;font-stretch:normal;line-height:1000%;font-family:KodchiangUPC;-inkscape-font-specification:KodchiangUPC Italic;fill:#666666"
             id="path3064" />
        </g>
      </g>
    </g>
  </g>
</svg>
